<mxfile host="app.diagrams.net" agent="Mozilla/5.0 (Macintosh; Intel Mac OS X 10_15_7) AppleWebKit/605.1.15 (KHTML, like Gecko) Version/18.1.1 Safari/605.1.15" version="25.0.1">
  <diagram name="Page-1" id="hPxdL70JE_tot1xQ91Ld">
    <mxGraphModel dx="3908" dy="2355" grid="1" gridSize="10" guides="1" tooltips="1" connect="1" arrows="1" fold="1" page="1" pageScale="1" pageWidth="850" pageHeight="1100" math="0" shadow="0">
      <root>
        <mxCell id="0" />
        <mxCell id="1" parent="0" />
        <mxCell id="YsR5fvr65i6E81ew2vtq-1" value="Player" style="swimlane;fontStyle=1;align=center;verticalAlign=top;childLayout=stackLayout;horizontal=1;startSize=26;horizontalStack=0;resizeParent=1;resizeParentMax=0;resizeLast=0;collapsible=1;marginBottom=0;whiteSpace=wrap;html=1;" vertex="1" parent="1">
          <mxGeometry x="-280" y="-1100" width="560" height="390" as="geometry" />
        </mxCell>
        <mxCell id="YsR5fvr65i6E81ew2vtq-2" value="- mass : float&amp;nbsp;&lt;div&gt;- alreadyOnTop : bool = false&lt;/div&gt;&lt;div&gt;- spaceGotPressed : bool = false&lt;/div&gt;&lt;div&gt;- Color : color = RED&lt;/div&gt;&lt;div&gt;- position : Vector2&lt;div&gt;- velocity : Vector2&lt;/div&gt;&lt;div&gt;- initialVelocity : Vector2&lt;/div&gt;&lt;div&gt;- acceleration : Vector2&lt;/div&gt;&lt;div&gt;- distance : Vector2&lt;/div&gt;&lt;/div&gt;" style="text;strokeColor=none;fillColor=none;align=left;verticalAlign=top;spacingLeft=4;spacingRight=4;overflow=hidden;rotatable=0;points=[[0,0.5],[1,0.5]];portConstraint=eastwest;whiteSpace=wrap;html=1;" vertex="1" parent="YsR5fvr65i6E81ew2vtq-1">
          <mxGeometry y="26" width="560" height="134" as="geometry" />
        </mxCell>
        <mxCell id="YsR5fvr65i6E81ew2vtq-3" value="" style="line;strokeWidth=1;fillColor=none;align=left;verticalAlign=middle;spacingTop=-1;spacingLeft=3;spacingRight=3;rotatable=0;labelPosition=right;points=[];portConstraint=eastwest;strokeColor=inherit;" vertex="1" parent="YsR5fvr65i6E81ew2vtq-1">
          <mxGeometry y="160" width="560" height="48" as="geometry" />
        </mxCell>
        <mxCell id="YsR5fvr65i6E81ew2vtq-4" value="+ DrawPlayer()&lt;div&gt;+ UpdateSpaceVariable()&lt;/div&gt;&lt;div&gt;+ MovementCalculation(Platform platform)&lt;/div&gt;&lt;div&gt;+ UpdatePlayerPosition(List&amp;lt;Platforms&amp;gt; platforms, Vector2 distance)&lt;/div&gt;&lt;div&gt;+ CalculatingDistance(Vector2 initialVelocity, Vector2 acceleration, float time): Vector2&lt;/div&gt;&lt;div&gt;+ CalculatingVelocity(Vector2 initialVelocity, Vector2 acceleration, List&amp;lt;Platform&amp;gt; platforms) : Vector2&lt;/div&gt;&lt;div&gt;+ SettingInitialVelocity(Vector2 velocity, List&amp;lt;Platform&amp;gt; platforms, ref bool alreadyontop) : Vector2&lt;/div&gt;&lt;div&gt;+ CalculatingTimeTillMaximumJumpHeight(Vector2 initial Velocity) : float&amp;nbsp;&lt;/div&gt;&lt;div&gt;+ SettingAcceleration(Plaform platform) : Vector2&lt;/div&gt;&lt;div&gt;+ CheckIfPlayerCollidesWithObject(List&amp;lt;Platform&amp;gt; platforms) : List&amp;lt;string&amp;gt;&lt;/div&gt;&lt;div&gt;&lt;br&gt;&lt;/div&gt;" style="text;strokeColor=none;fillColor=none;align=left;verticalAlign=top;spacingLeft=4;spacingRight=4;overflow=hidden;rotatable=0;points=[[0,0.5],[1,0.5]];portConstraint=eastwest;whiteSpace=wrap;html=1;" vertex="1" parent="YsR5fvr65i6E81ew2vtq-1">
          <mxGeometry y="208" width="560" height="182" as="geometry" />
        </mxCell>
        <mxCell id="YsR5fvr65i6E81ew2vtq-5" value="Platform" style="swimlane;fontStyle=1;align=center;verticalAlign=top;childLayout=stackLayout;horizontal=1;startSize=26;horizontalStack=0;resizeParent=1;resizeParentMax=0;resizeLast=0;collapsible=1;marginBottom=0;whiteSpace=wrap;html=1;" vertex="1" parent="1">
          <mxGeometry x="-1010" y="-910" width="460" height="200" as="geometry" />
        </mxCell>
        <mxCell id="YsR5fvr65i6E81ew2vtq-6" value="- position : Vector2&lt;div&gt;- size : Vector2&lt;/div&gt;&lt;div&gt;- color : Color&lt;/div&gt;&lt;div&gt;- platforms : List&amp;lt;Platform&amp;gt;&lt;/div&gt;&lt;div&gt;- areas : List&amp;lt;Area&amp;gt;&lt;/div&gt;" style="text;strokeColor=none;fillColor=none;align=left;verticalAlign=top;spacingLeft=4;spacingRight=4;overflow=hidden;rotatable=0;points=[[0,0.5],[1,0.5]];portConstraint=eastwest;whiteSpace=wrap;html=1;" vertex="1" parent="YsR5fvr65i6E81ew2vtq-5">
          <mxGeometry y="26" width="460" height="84" as="geometry" />
        </mxCell>
        <mxCell id="YsR5fvr65i6E81ew2vtq-7" value="" style="line;strokeWidth=1;fillColor=none;align=left;verticalAlign=middle;spacingTop=-1;spacingLeft=3;spacingRight=3;rotatable=0;labelPosition=right;points=[];portConstraint=eastwest;strokeColor=inherit;" vertex="1" parent="YsR5fvr65i6E81ew2vtq-5">
          <mxGeometry y="110" width="460" height="8" as="geometry" />
        </mxCell>
        <mxCell id="YsR5fvr65i6E81ew2vtq-8" value="+ DrawPlatforms()&lt;div&gt;+ sortPlatforms (List&amp;lt;Platform&amp;gt; platforms) : List&amp;lt;Platform&amp;gt;&lt;/div&gt;&lt;div&gt;+ mergeSort (List&amp;lt;Platform&amp;gt; leftSide, List&amp;lt;Platform rightSide&amp;gt;) : List&amp;lt;Platform&amp;gt;&lt;/div&gt;&lt;div&gt;+ AllocateAreasForPlatform(Platform platform, Player player)&lt;/div&gt;&lt;div&gt;+ generatePlatformsInAreas(Platform singlePlatform)&amp;nbsp;&lt;/div&gt;" style="text;strokeColor=none;fillColor=none;align=left;verticalAlign=top;spacingLeft=4;spacingRight=4;overflow=hidden;rotatable=0;points=[[0,0.5],[1,0.5]];portConstraint=eastwest;whiteSpace=wrap;html=1;" vertex="1" parent="YsR5fvr65i6E81ew2vtq-5">
          <mxGeometry y="118" width="460" height="82" as="geometry" />
        </mxCell>
        <mxCell id="YsR5fvr65i6E81ew2vtq-9" value="Items" style="swimlane;fontStyle=1;align=center;verticalAlign=top;childLayout=stackLayout;horizontal=1;startSize=26;horizontalStack=0;resizeParent=1;resizeParentMax=0;resizeLast=0;collapsible=1;marginBottom=0;whiteSpace=wrap;html=1;" vertex="1" parent="1">
          <mxGeometry x="600" y="-970" width="360" height="170" as="geometry" />
        </mxCell>
        <mxCell id="YsR5fvr65i6E81ew2vtq-10" value="- Name : string&lt;div&gt;- index : int&lt;/div&gt;&lt;div&gt;- color : Color&lt;/div&gt;&lt;div&gt;- properties : String&lt;/div&gt;&lt;div&gt;- allItems : List&amp;lt;Items&amp;gt;&lt;/div&gt;&lt;div&gt;- itemsInInventory : List&amp;lt;Items&amp;gt;&lt;/div&gt;" style="text;strokeColor=none;fillColor=none;align=left;verticalAlign=top;spacingLeft=4;spacingRight=4;overflow=hidden;rotatable=0;points=[[0,0.5],[1,0.5]];portConstraint=eastwest;whiteSpace=wrap;html=1;" vertex="1" parent="YsR5fvr65i6E81ew2vtq-9">
          <mxGeometry y="26" width="360" height="94" as="geometry" />
        </mxCell>
        <mxCell id="YsR5fvr65i6E81ew2vtq-11" value="" style="line;strokeWidth=1;fillColor=none;align=left;verticalAlign=middle;spacingTop=-1;spacingLeft=3;spacingRight=3;rotatable=0;labelPosition=right;points=[];portConstraint=eastwest;strokeColor=inherit;" vertex="1" parent="YsR5fvr65i6E81ew2vtq-9">
          <mxGeometry y="120" width="360" height="8" as="geometry" />
        </mxCell>
        <mxCell id="YsR5fvr65i6E81ew2vtq-12" value="+ UseItem(List&amp;lt;Items&amp;gt; itemsInInventory)&lt;div&gt;+ PickUpItem(List&amp;lt;Items&amp;gt; allItems, List&amp;lt;Items&amp;gt; itemsInInventory)&lt;/div&gt;" style="text;strokeColor=none;fillColor=none;align=left;verticalAlign=top;spacingLeft=4;spacingRight=4;overflow=hidden;rotatable=0;points=[[0,0.5],[1,0.5]];portConstraint=eastwest;whiteSpace=wrap;html=1;" vertex="1" parent="YsR5fvr65i6E81ew2vtq-9">
          <mxGeometry y="128" width="360" height="42" as="geometry" />
        </mxCell>
        <mxCell id="YsR5fvr65i6E81ew2vtq-13" value="Area" style="swimlane;fontStyle=1;align=center;verticalAlign=top;childLayout=stackLayout;horizontal=1;startSize=26;horizontalStack=0;resizeParent=1;resizeParentMax=0;resizeLast=0;collapsible=1;marginBottom=0;whiteSpace=wrap;html=1;" vertex="1" parent="1">
          <mxGeometry x="-975" y="-440" width="390" height="140" as="geometry" />
        </mxCell>
        <mxCell id="YsR5fvr65i6E81ew2vtq-14" value="- position : Vector2&lt;div&gt;- size : Vector2&lt;/div&gt;&lt;div&gt;- information : String&lt;/div&gt;&lt;div&gt;- platformPlaced : bool&lt;/div&gt;" style="text;strokeColor=none;fillColor=none;align=left;verticalAlign=top;spacingLeft=4;spacingRight=4;overflow=hidden;rotatable=0;points=[[0,0.5],[1,0.5]];portConstraint=eastwest;whiteSpace=wrap;html=1;" vertex="1" parent="YsR5fvr65i6E81ew2vtq-13">
          <mxGeometry y="26" width="390" height="74" as="geometry" />
        </mxCell>
        <mxCell id="YsR5fvr65i6E81ew2vtq-15" value="" style="line;strokeWidth=1;fillColor=none;align=left;verticalAlign=middle;spacingTop=-1;spacingLeft=3;spacingRight=3;rotatable=0;labelPosition=right;points=[];portConstraint=eastwest;strokeColor=inherit;" vertex="1" parent="YsR5fvr65i6E81ew2vtq-13">
          <mxGeometry y="100" width="390" height="8" as="geometry" />
        </mxCell>
        <mxCell id="YsR5fvr65i6E81ew2vtq-16" value="+ FitsPlatformInArea(Area area, Vector2 position, Vector2 size) : bool" style="text;strokeColor=none;fillColor=none;align=left;verticalAlign=top;spacingLeft=4;spacingRight=4;overflow=hidden;rotatable=0;points=[[0,0.5],[1,0.5]];portConstraint=eastwest;whiteSpace=wrap;html=1;" vertex="1" parent="YsR5fvr65i6E81ew2vtq-13">
          <mxGeometry y="108" width="390" height="32" as="geometry" />
        </mxCell>
        <mxCell id="YsR5fvr65i6E81ew2vtq-17" value="MainGame" style="swimlane;fontStyle=1;align=center;verticalAlign=top;childLayout=stackLayout;horizontal=1;startSize=26;horizontalStack=0;resizeParent=1;resizeParentMax=0;resizeLast=0;collapsible=1;marginBottom=0;whiteSpace=wrap;html=1;" vertex="1" parent="1">
          <mxGeometry x="-430" y="-490" width="860" height="120" as="geometry" />
        </mxCell>
        <mxCell id="YsR5fvr65i6E81ew2vtq-18" value="- player : Player =&amp;nbsp;new Player(new Vector2(50, 50), new Vector2(200, 1), new Vector2(0, 0), new Vector2(0, 0), new Vector2(0, 0), new Vector2(0, 0), RED, 80);&lt;div&gt;- platform : Platform =&amp;nbsp;new Platform(new Vector2(), new Vector2(), RED);&lt;/div&gt;" style="text;strokeColor=none;fillColor=none;align=left;verticalAlign=top;spacingLeft=4;spacingRight=4;overflow=hidden;rotatable=0;points=[[0,0.5],[1,0.5]];portConstraint=eastwest;whiteSpace=wrap;html=1;" vertex="1" parent="YsR5fvr65i6E81ew2vtq-17">
          <mxGeometry y="26" width="860" height="44" as="geometry" />
        </mxCell>
        <mxCell id="YsR5fvr65i6E81ew2vtq-19" value="" style="line;strokeWidth=1;fillColor=none;align=left;verticalAlign=middle;spacingTop=-1;spacingLeft=3;spacingRight=3;rotatable=0;labelPosition=right;points=[];portConstraint=eastwest;strokeColor=inherit;" vertex="1" parent="YsR5fvr65i6E81ew2vtq-17">
          <mxGeometry y="70" width="860" height="8" as="geometry" />
        </mxCell>
        <mxCell id="YsR5fvr65i6E81ew2vtq-20" value="+ Update()&lt;div&gt;+ Draw()&lt;/div&gt;" style="text;strokeColor=none;fillColor=none;align=left;verticalAlign=top;spacingLeft=4;spacingRight=4;overflow=hidden;rotatable=0;points=[[0,0.5],[1,0.5]];portConstraint=eastwest;whiteSpace=wrap;html=1;" vertex="1" parent="YsR5fvr65i6E81ew2vtq-17">
          <mxGeometry y="78" width="860" height="42" as="geometry" />
        </mxCell>
        <mxCell id="YsR5fvr65i6E81ew2vtq-21" value="&lt;font style=&quot;font-size: 40px;&quot;&gt;Program&lt;/font&gt;" style="html=1;whiteSpace=wrap;" vertex="1" parent="1">
          <mxGeometry x="-180" y="-80" width="360" height="150" as="geometry" />
        </mxCell>
        <mxCell id="YsR5fvr65i6E81ew2vtq-22" value="" style="endArrow=diamondThin;endFill=1;endSize=24;html=1;rounded=0;entryX=0.5;entryY=0;entryDx=0;entryDy=0;exitX=0.504;exitY=1.022;exitDx=0;exitDy=0;exitPerimeter=0;" edge="1" parent="1" source="YsR5fvr65i6E81ew2vtq-4" target="YsR5fvr65i6E81ew2vtq-17">
          <mxGeometry width="160" relative="1" as="geometry">
            <mxPoint x="-220" y="-90" as="sourcePoint" />
            <mxPoint x="-60" y="-90" as="targetPoint" />
          </mxGeometry>
        </mxCell>
        <mxCell id="YsR5fvr65i6E81ew2vtq-23" value="" style="endArrow=diamondThin;endFill=1;endSize=24;html=1;rounded=0;entryX=0;entryY=0;entryDx=0;entryDy=0;exitX=0.504;exitY=0.951;exitDx=0;exitDy=0;exitPerimeter=0;" edge="1" parent="1" source="YsR5fvr65i6E81ew2vtq-8" target="YsR5fvr65i6E81ew2vtq-17">
          <mxGeometry width="160" relative="1" as="geometry">
            <mxPoint x="-580" y="-380" as="sourcePoint" />
            <mxPoint x="-420" y="-380" as="targetPoint" />
          </mxGeometry>
        </mxCell>
        <mxCell id="YsR5fvr65i6E81ew2vtq-24" value="" style="endArrow=diamondThin;endFill=1;endSize=24;html=1;rounded=0;entryX=0.504;entryY=0.976;entryDx=0;entryDy=0;entryPerimeter=0;exitX=0.5;exitY=0;exitDx=0;exitDy=0;" edge="1" parent="1" source="YsR5fvr65i6E81ew2vtq-13" target="YsR5fvr65i6E81ew2vtq-8">
          <mxGeometry width="160" relative="1" as="geometry">
            <mxPoint x="-810" y="-370" as="sourcePoint" />
            <mxPoint x="-650" y="-370" as="targetPoint" />
          </mxGeometry>
        </mxCell>
        <mxCell id="YsR5fvr65i6E81ew2vtq-25" value="" style="endArrow=diamondThin;endFill=0;endSize=24;html=1;rounded=0;entryX=1;entryY=0.5;entryDx=0;entryDy=0;exitX=0;exitY=0.5;exitDx=0;exitDy=0;" edge="1" parent="1" source="YsR5fvr65i6E81ew2vtq-10" target="YsR5fvr65i6E81ew2vtq-1">
          <mxGeometry width="160" relative="1" as="geometry">
            <mxPoint x="550" y="-400" as="sourcePoint" />
            <mxPoint x="710" y="-400" as="targetPoint" />
          </mxGeometry>
        </mxCell>
        <mxCell id="YsR5fvr65i6E81ew2vtq-26" value="" style="endArrow=diamondThin;endFill=1;endSize=24;html=1;rounded=0;entryX=0.5;entryY=0;entryDx=0;entryDy=0;exitX=0.5;exitY=1;exitDx=0;exitDy=0;exitPerimeter=0;" edge="1" parent="1" source="YsR5fvr65i6E81ew2vtq-20" target="YsR5fvr65i6E81ew2vtq-21">
          <mxGeometry width="160" relative="1" as="geometry">
            <mxPoint x="-220" y="20" as="sourcePoint" />
            <mxPoint x="-60" y="20" as="targetPoint" />
          </mxGeometry>
        </mxCell>
      </root>
    </mxGraphModel>
  </diagram>
</mxfile>
